<svg xmlns="http://www.w3.org/2000/svg" width="242.098" height="294.2" viewBox="0 0 242.098 294.2">
	<g transform="translate(-278.952 -174)">
		<g transform="translate(-820)">
			<path d="M1181.145,400.987a18.12,18.12,0,0,1-25.629,25.622l-51.252-51.253a18.1,18.1,0,0,1,0-25.622l51.252-51.251a18.117,18.117,0,0,1,25.622,25.622L1142.7,362.542Z" fill="#001740" />
			<path d="M1335.745,375.356l-51.251,51.253a18.12,18.12,0,0,1-25.63-25.622l38.444-38.445L1258.864,324.1a18.117,18.117,0,1,1,25.622-25.622l51.252,51.252A18.122,18.122,0,0,1,1335.745,375.356Z" fill="#001740" />
		</g>
		<g transform="translate(-820)">
			<path d="M1169.171,201.163l-3.559,3.559L1322.387,361.5l-99.669,99.669L1118.21,361.519l71.031-66.132-3.431-3.684-74.939,69.772L1222.8,468.2l106.7-106.7Z" fill="#ff7f00" />
			<path d="M1151.033,204.2a15.1,15.1,0,1,0-15.1-15.1A15.117,15.117,0,0,0,1151.033,204.2Zm0-25.168a10.067,10.067,0,1,1-10.067,10.067A10.078,10.078,0,0,1,1151.033,179.033Z" fill="#ff7f00" />
		</g>
	</g>
</svg>
